<svg id="Layer_1" enable-background="new 0 0 512.168 512.168" height="512" viewBox="0 0 512.168 512.168" width="512" xmlns="http://www.w3.org/2000/svg" fill="#55acee"><g><path d="m374.216 377.376c-3.465 2.27-4.433 6.919-2.163 10.384 13.457 20.539 21.133 44.135 22.439 68.654h-49.136c-4.142 0-7.5 3.358-7.5 7.5v40.761c.302 9.903 14.692 9.921 15 0v-33.261h41.42v33.26c-.008 4.209 3.505 7.643 7.719 7.489 4.213.153 7.727-3.28 7.719-7.489v-40.76c0-30.122-8.685-59.298-25.114-84.375-2.27-3.465-6.919-4.432-10.384-2.163z"/><path d="m399.328 184.781c11.36-41.132 9.116-101.514-16.483-133.851-33.078-53.743-149.589-64.695-208.982-34.077-8.174 4.357-2.599 17.2 6.703 13.419 20.054-10.018 45.462-15.098 75.518-15.098 125.619-2.169 149.48 85.883 128.132 168.067h-6.283c-20.174-13.647-31.828-43.6-31.105-41.516-1.443-3.596-6.9-6.906-12.132-2.818l-6.802 6.355c-27.723-24.363-43.542-61.189-43.706-61.576-1.882-4.66-9.749-6.678-13.482-.694-15.915 28.969-45.004 49.33-56.137 56.389l-10.642-9.499c-2.518-2.145-7.674-3.028-11.113 1.258-21.546 30.393-49.379 48.044-56.216 52.1h-8.429c-9.818-38.73-7.595-102.97 26.264-134.315 6.051-6.104-2.51-17.279-10.617-10.597-37.066 34.393-41.326 102.512-30.689 146.344-4.459 1.433-8.547 3.912-11.953 7.325-5.631 5.643-8.732 13.144-8.732 21.123 0 16.475 13.383 29.879 29.833 29.879h9.055c1.8 30.751 14.636 59.381 36.619 81.289 2.785 2.775 5.68 5.397 8.669 7.873-45.972 27.832-74.165 77.478-74.165 131.753v40.76c.301 9.898 14.691 9.925 15 0v-33.26h41.421v33.261c.303 9.906 14.693 9.918 15 0v-40.761c0-1.989-.79-3.897-2.197-5.303-1.406-1.407-3.314-2.197-5.303-2.197h-48.701c2.566-48.162 29.709-91.421 72.273-114.611 7.681 4.818 15.833 8.762 24.334 11.777v19.113c0 23.03 18.737 41.767 41.843 41.767 23.03 0 41.767-18.737 41.767-41.767v-19.269c8.479-3.061 16.539-7.022 24.067-11.773 10.83 5.872 20.841 13.155 29.793 21.712 6.017 6.241 17.248-2.974 10.365-10.843-8.198-7.836-17.197-14.711-26.85-20.537 25.841-21.491 43.056-53.236 45.496-88.983h9.133c16.449 0 29.833-13.403 29.833-29.879 0-13.175-8.56-24.377-20.399-28.34zm-291.887 28.338c-.166-7.984 6.846-15.043 14.833-14.879h8.827v29.758h-8.827c-8.179 0-14.833-6.675-14.833-14.879zm175.448 159.573c-1.331 35.433-52.274 35.485-53.61 0v-14.843c8.707 1.897 17.68 2.876 26.803 2.876.147 0 .297 0 .444-.001 9.044-.031 17.862-1.052 26.364-2.944v14.912zm-26.416-26.968c-62.756.213-110.694-51.702-110.373-110.226v-40.458c9.276-5.67 33.16-21.769 53.958-48.505l8.657 7.727c2.378 2.123 5.84 2.511 8.629.965 1.622-.898 36.157-20.292 59.123-53.165 8.081 15.227 24.035 41.046 47.099 59.095 2.91 2.278 7.043 2.096 9.742-.426l4.121-3.85c4.938 9.282 14.085 23.724 28.637 37.186v40.153c.001 61.274-49.163 111.294-109.593 111.504zm133.421-117.725h-8.827v-29.758h8.827c8.179 0 14.833 6.675 14.833 14.878 0 8.205-6.654 14.88-14.833 14.88z"/><path d="m301.756 265.185h-91.345c-4.142 0-7.5 3.358-7.5 7.5 2.675 70.573 103.683 70.544 106.345 0-.075-3.087-2.425-7.227-7.5-7.5zm-45.672 45.766c-18.488 0-33.948-13.246-37.436-30.767h74.873c-3.489 17.522-18.95 30.767-37.437 30.767z"/></g></svg>